<?xml version="1.0" encoding="utf-8"?>
<!-- Generator: Adobe Illustrator 18.0.0, SVG Export Plug-In . SVG Version: 6.00 Build 0)  -->
<!DOCTYPE svg PUBLIC "-//W3C//DTD SVG 1.1//EN" "http://www.w3.org/Graphics/SVG/1.1/DTD/svg11.dtd">
<svg version="1.1" id="Capa_1" xmlns:sketch="http://www.bohemiancoding.com/sketch/ns"
	 xmlns="http://www.w3.org/2000/svg" xmlns:xlink="http://www.w3.org/1999/xlink" x="0px" y="0px" viewBox="0 0 32 32"
	 enable-background="new 0 0 32 32" xml:space="preserve">
<title>icon 22 eye</title>
<desc>Created with Sketch.</desc>
<g>
	<circle cx="16" cy="16" r="1"/>
	<path d="M16,12c-2.2,0-4,1.8-4,4s1.8,4,4,4s4-1.8,4-4S18.2,12,16,12z M16,19c-1.7,0-3-1.3-3-3s1.3-3,3-3s3,1.3,3,3S17.7,19,16,19z"
		/>
	<path d="M16,9C7,9,3,16,3,16s4,7,13,7s13-7,13-7S25,9,16,9z M16,22c-8,0-11.8-6-11.8-6S8,10,16,10s11.8,6,11.8,6S24,22,16,22z"/>
</g>
</svg>
