<?xml version="1.0" encoding="iso-8859-1"?>
<!-- Generator: Adobe Illustrator 18.0.0, SVG Export Plug-In . SVG Version: 6.00 Build 0)  -->
<!DOCTYPE svg PUBLIC "-//W3C//DTD SVG 1.1//EN" "http://www.w3.org/Graphics/SVG/1.1/DTD/svg11.dtd">
<svg version="1.1" id="Capa_1" xmlns="http://www.w3.org/2000/svg" xmlns:xlink="http://www.w3.org/1999/xlink" x="0px" y="0px"
	 viewBox="0 0 53 45.001" style="enable-background:new 0 0 53 45.001;" xml:space="preserve">
<g id="Polygon_1">
	<g>
		<path style="fill-rule:evenodd;clip-rule:evenodd;" d="M50,0H3C1.343,0,0,1.343,0,3v29c0,1.657,1.343,3,3,3h3.083l5.416,10
			l5.416-10H50c1.657,0,3-1.343,3-3V3C53,1.343,51.657,0,50,0z M51,30c0,1.657-1.343,3-3,3H15.52l-3.953,6.846L7.615,33H5
			c-1.657,0-3-1.343-3-3V5c0-1.657,1.343-3,3-3h43c1.657,0,3,1.343,3,3V30z"/>
	</g>
</g>
<g>
</g>
<g>
</g>
<g>
</g>
<g>
</g>
<g>
</g>
<g>
</g>
<g>
</g>
<g>
</g>
<g>
</g>
<g>
</g>
<g>
</g>
<g>
</g>
<g>
</g>
<g>
</g>
<g>
</g>
</svg>
